<svg xmlns="http://www.w3.org/2000/svg" width="900" height="480" viewBox="0 0 900 480" role="img" aria-labelledby="title desc">
  <title id="title">DeepWeeds fold 0 class distribution</title>
  <desc id="desc">Image counts by class across train, validation, and test, with Negative as the dominant class.</desc>
  <rect width="900" height="480" fill="#ffffff"/>
  <text x="450" y="34" text-anchor="middle" font-family="Arial, sans-serif" font-size="21" font-weight="bold" fill="#222">DeepWeeds fold 0 — số ảnh theo lớp (toàn bộ 17.509 ảnh)</text>
  <text x="640" y="66" font-family="Arial, sans-serif" font-size="13" fill="#444">Số ảnh</text>
  <g stroke="#dddddd" stroke-width="1">
    <line x1="230" y1="82" x2="230" y2="420"/>
    <line x1="350" y1="82" x2="350" y2="420"/>
    <line x1="470" y1="82" x2="470" y2="420"/>
    <line x1="590" y1="82" x2="590" y2="420"/>
    <line x1="710" y1="82" x2="710" y2="420"/>
  </g>
  <g font-family="Arial, sans-serif" font-size="12" fill="#666" text-anchor="middle">
    <text x="230" y="438">0</text><text x="350" y="438">2.000</text><text x="470" y="438">4.000</text><text x="590" y="438">6.000</text><text x="710" y="438">8.000</text>
  </g>
  <g font-family="Arial, sans-serif" font-size="13" fill="#333">
    <text x="218" y="105" text-anchor="end">Chinee apple</text>
    <text x="218" y="143" text-anchor="end">Lantana</text>
    <text x="218" y="181" text-anchor="end">Parkinsonia</text>
    <text x="218" y="219" text-anchor="end">Parthenium</text>
    <text x="218" y="257" text-anchor="end">Prickly acacia</text>
    <text x="218" y="295" text-anchor="end">Rubber vine</text>
    <text x="218" y="333" text-anchor="end">Siam weed</text>
    <text x="218" y="371" text-anchor="end">Snake weed</text>
    <text x="218" y="409" text-anchor="end">Negative</text>
  </g>
  <g fill="#3977b8">
    <rect x="230" y="88" width="67.5" height="22" rx="2"/>
    <rect x="230" y="126" width="63.84" height="22" rx="2"/>
    <rect x="230" y="164" width="61.86" height="22" rx="2"/>
    <rect x="230" y="202" width="61.32" height="22" rx="2"/>
    <rect x="230" y="240" width="63.72" height="22" rx="2"/>
    <rect x="230" y="278" width="60.54" height="22" rx="2"/>
    <rect x="230" y="316" width="64.44" height="22" rx="2"/>
    <rect x="230" y="354" width="60.96" height="22" rx="2"/>
    <rect x="230" y="392" width="546.36" height="22" rx="2"/>
  </g>
  <g font-family="Arial, sans-serif" font-size="12" fill="#333">
    <text x="304" y="104">1.125</text><text x="300" y="142">1.064</text>
    <text x="298" y="180">1.031</text><text x="298" y="218">1.022</text>
    <text x="300" y="256">1.062</text><text x="297" y="294">1.009</text>
    <text x="301" y="332">1.074</text><text x="297" y="370">1.016</text>
    <text x="784" y="408">9.106</text>
  </g>
  <text x="470" y="466" text-anchor="middle" font-family="Arial, sans-serif" font-size="12" fill="#666">Tổng số ảnh trong ba split fold 0</text>
</svg>
